HIERARCHY
ROOT Hips
{
	OFFSET 0.000000 0.000000 0.000000
	CHANNELS 6 Xposition Yposition Zposition Zrotation Yrotation Xrotation 
	JOINT LHipJoint
	{
		OFFSET 0.000000 0.000000 0.000000
		CHANNELS 3 Zrotation Yrotation Xrotation
		JOINT LeftUpLeg
		{
			OFFSET 1.363060 -1.794630 0.839290
			CHANNELS 3 Zrotation Yrotation Xrotation
			JOINT LeftLeg
			{
				OFFSET 2.448110 -6.726130 0.000000
				CHANNELS 3 Zrotation Yrotation Xrotation
				JOINT LeftFoot
				{
					OFFSET 2.562200 -7.039590 0.000000
					CHANNELS 3 Zrotation Yrotation Xrotation
					JOINT LeftToeBase
					{
						OFFSET 0.157640 -0.433110 2.322550
						CHANNELS 3 Zrotation Yrotation Xrotation
						End Site
						{
							OFFSET 0.000000 0.000000 0.000000
						}
					}
				}
			}
		}
	}
	JOINT RHipJoint
	{
		OFFSET 0.000000 0.000000 0.000000
		CHANNELS 3 Zrotation Yrotation Xrotation
		JOINT RightUpLeg
		{
			OFFSET -1.305520 -1.794630 0.839290
			CHANNELS 3 Zrotation Yrotation Xrotation
			JOINT RightLeg
			{
				OFFSET -2.542530 -6.985550 0.000000
				CHANNELS 3 Zrotation Yrotation Xrotation
				JOINT RightFoot
				{
					OFFSET -2.568260 -7.056230 0.000000
					CHANNELS 3 Zrotation Yrotation Xrotation
					JOINT RightToeBase
					{
						OFFSET -0.164730 -0.452590 2.363150
						CHANNELS 3 Zrotation Yrotation Xrotation
						End Site
						{
							OFFSET 0.000000 0.000000 0.000000
						}
					}
				}
			}
		}
	}
	JOINT LowerBack
	{
		OFFSET 0.000000 0.000000 0.000000
		CHANNELS 3 Zrotation Yrotation Xrotation
		JOINT Spine
		{
			OFFSET 0.028270 2.035590 -0.193380
			CHANNELS 3 Zrotation Yrotation Xrotation
			JOINT Spine1
			{
				OFFSET 0.056720 2.048850 -0.042750
				CHANNELS 3 Zrotation Yrotation Xrotation
				JOINT Neck
				{
					OFFSET 0.000000 0.000000 0.000000
					CHANNELS 3 Zrotation Yrotation Xrotation
					JOINT Neck1
					{
						OFFSET -0.054170 1.746240 0.172020
						CHANNELS 3 Zrotation Yrotation Xrotation
						JOINT Head
						{
							OFFSET 0.104070 1.761360 -0.123970
							CHANNELS 3 Zrotation Yrotation Xrotation
							End Site
							{
								OFFSET 0.000000 0.000000 0.000000
							}
						}
					}
				}
				JOINT LeftShoulder
				{
					OFFSET 0.000000 0.000000 0.000000
					CHANNELS 3 Zrotation Yrotation Xrotation
					JOINT LeftArm
					{
						OFFSET 3.362410 1.200890 -0.311210
						CHANNELS 3 Zrotation Yrotation Xrotation
						JOINT LeftForeArm
						{
							OFFSET 4.983000 -0.000000 -0.000000
							CHANNELS 3 Zrotation Yrotation Xrotation
							JOINT LeftHand
							{
								OFFSET 3.483560 -0.000000 -0.000000
								CHANNELS 3 Zrotation Yrotation Xrotation
								JOINT LeftFingerBase
								{
									OFFSET 0.000000 0.000000 0.000000
									CHANNELS 3 Zrotation Yrotation Xrotation
									JOINT LeftHandIndex1
									{
										OFFSET 0.715260 -0.000000 -0.000000
										CHANNELS 3 Zrotation Yrotation Xrotation
										End Site
										{
											OFFSET 0.000000 0.000000 0.000000
										}
									}
								}
								JOINT LThumb
								{
									OFFSET 0.000000 0.000000 0.000000
									CHANNELS 3 Zrotation Yrotation Xrotation
									End Site
									{
										OFFSET 0.000000 0.000000 0.000000
									}
								}
							}
						}
					}
				}
				JOINT RightShoulder
				{
					OFFSET 0.000000 0.000000 0.000000
					CHANNELS 3 Zrotation Yrotation Xrotation
					JOINT RightArm
					{
						OFFSET -3.136600 1.374050 -0.404650
						CHANNELS 3 Zrotation Yrotation Xrotation
						JOINT RightForeArm
						{
							OFFSET -5.241900 -0.000000 -0.000000
							CHANNELS 3 Zrotation Yrotation Xrotation
							JOINT RightHand
							{
								OFFSET -3.444170 -0.000000 -0.000000
								CHANNELS 3 Zrotation Yrotation Xrotation
								JOINT RightFingerBase
								{
									OFFSET 0.000000 0.000000 0.000000
									CHANNELS 3 Zrotation Yrotation Xrotation
									JOINT RightHandIndex1
									{
										OFFSET -0.622530 -0.000000 -0.000000
										CHANNELS 3 Zrotation Yrotation Xrotation
										End Site
										{
											OFFSET 0.000000 0.000000 0.000000
										}
									}
								}
								JOINT RThumb
								{
									OFFSET 0.000000 0.000000 0.000000
									CHANNELS 3 Zrotation Yrotation Xrotation
									End Site
									{
										OFFSET 0.000000 0.000000 0.000000
									}
								}
							}
						}
					}
				}
			}
		}
	}
}
MOTION
Frames: 4
Frame Time: 0.008333
-0.739618 17.374706 -54.177895 -6.523532 -20.047171 15.639315 -2.248051 -4.794569 -6.455025 -1.165159 3.394119 -53.327510 4.240478 14.793010 40.349449 1.171417 0.579576 12.977697 0.779400 -5.636600 -15.733500 5.189863 0.731616 3.996944 19.409997 0.421133 -6.872752 -0.864047 -9.181999 28.391356 1.869722 -8.886301 -12.460357 -2.229000 9.327700 -26.825900 11.829668 1.879638 17.467080 0.800239 4.636390 -4.487988 -2.858915 2.175726 -8.457748 0.242010 1.810004 -17.790874 -1.631191 1.499422 2.064272 -2.294700 0.071800 5.590300 2.177794 -4.390148 -0.365696 -88.523139 2.050644 33.700109 24.753094 -35.028361 -9.621492 -0.619620 -0.045262 1.000268 20.323879 -1.113676 -0.402100 -7.125000 0.000000 0.000000 -4.383800 28.843400 1.729700 -1.686363 3.654551 -0.603134 86.003678 -2.214868 30.592948 -20.171884 29.381588 -6.994710 1.177397 1.451950 4.157741 -13.571195 -13.104641 3.772400 7.125000 0.000000 0.000000 11.916200 -44.727100 0.081400 
-0.719140 17.321212 -54.023995 -6.308963 -20.251712 15.790838 -2.150648 -4.786078 -6.504030 -1.721322 3.534881 -54.206396 4.446903 14.975815 41.044249 0.995885 0.922586 12.624148 0.738900 -5.491300 -15.315200 5.096354 0.702786 4.018749 18.808133 -0.199431 -7.154474 -1.046347 -9.421134 29.181373 1.297097 -7.501094 -12.639340 -2.197000 9.264900 -26.627400 11.845225 1.926853 17.407159 0.734105 4.659739 -4.436857 -3.059950 2.193378 -8.306589 0.212505 1.868608 -17.438490 -1.616840 1.578137 1.787549 -2.256800 0.119700 5.361500 2.201109 -4.382095 -0.341096 -88.541428 2.129675 33.740020 25.463254 -35.675395 -10.075793 -0.642245 -0.050632 0.452168 20.948182 -1.052569 -0.391700 -7.125000 0.000000 0.000000 -3.882000 28.906300 1.525000 -1.752857 3.662228 -0.577139 86.023656 -1.682862 32.012143 -20.542942 29.767872 -7.194318 1.190661 1.471972 4.422471 -13.647032 -13.518337 3.904800 7.125000 0.000000 0.000000 11.964600 -45.176200 -0.052800 
-0.721856 17.255076 -53.869572 -6.710445 -20.583148 16.009756 -1.955033 -4.708835 -6.563002 -1.680485 3.843850 -54.992630 4.770477 15.212242 41.968947 0.836401 1.230149 12.290524 0.664000 -5.211300 -14.512100 4.996458 0.650707 4.036589 18.905926 -0.298048 -6.907601 -1.145862 -9.559675 29.621521 0.931991 -6.611350 -12.724789 -2.181300 9.233900 -26.529700 12.069320 2.114394 17.686856 0.723522 4.973901 -4.378240 -3.216570 2.336190 -8.190872 0.245012 1.890694 -17.656145 -1.595400 1.599560 1.686371 -2.236900 0.130000 5.349000 2.240311 -4.406391 -0.321764 -88.411214 2.192541 34.012435 26.266472 -36.382950 -10.589491 -0.647104 -0.055891 0.008721 21.341608 -1.097706 -0.417600 -7.125000 0.000000 0.000000 -3.570000 28.856900 1.406200 -1.798662 3.679728 -0.569679 86.144927 -1.043158 33.346600 -21.008231 30.222336 -7.438096 1.165992 1.389340 4.975987 -13.584717 -12.826449 3.686800 7.125000 0.000000 0.000000 11.841700 -44.399600 0.178100 
-0.721856 17.189567 -53.707523 -6.929497 -20.962898 16.157260 -1.787565 -4.624796 -6.593048 -1.891205 4.221831 -55.798030 5.095046 15.450116 42.937928 0.684798 1.514615 11.987108 0.712800 -5.395500 -15.040100 4.905060 0.579615 4.073963 18.700744 -0.344077 -6.588194 -1.235060 -9.673955 29.982173 0.429785 -5.376249 -12.806249 -2.124200 9.120100 -26.171600 12.095459 2.341367 18.102471 0.686561 5.338181 -4.368163 -3.389440 2.498295 -8.307651 0.327951 1.894884 -17.776967 -1.621263 1.578452 1.591898 -2.253000 0.117400 5.334900 2.280916 -4.429355 -0.308591 -88.253910 2.516399 34.382092 27.168148 -37.165723 -11.175717 -0.647297 -0.056853 -0.514780 21.758826 -1.303646 -0.513000 -7.125000 0.000000 0.000000 -3.238800 28.628000 1.292900 -1.864282 3.693716 -0.571409 86.269968 -0.675986 34.662859 -21.801052 31.016457 -7.890339 1.171937 1.382734 4.988382 -13.828499 -12.944712 3.781100 7.125000 0.000000 0.000000 11.646600 -44.540400 0.134000 
